<?xml version="1.0" encoding="utf-8"?>
<!-- Generator: Adobe Illustrator 15.0.0, SVG Export Plug-In . SVG Version: 6.00 Build 0)  -->
<!DOCTYPE svg PUBLIC "-//W3C//DTD SVG 1.1//EN" "http://www.w3.org/Graphics/SVG/1.1/DTD/svg11.dtd">
<svg version="1.1" id="Layer_1" xmlns="http://www.w3.org/2000/svg" xmlns:xlink="http://www.w3.org/1999/xlink" x="0px" y="0px"
	 width="612px" height="792px" viewBox="0 0 612 792" enable-background="new 0 0 612 792" xml:space="preserve">
<g>
	<path fill="#C8BDB8" d="M525.457,702H100.685c-8.565,0-15.508-7.158-15.508-15.988V516.214h455.787v169.798
		C540.964,694.842,534.021,702,525.457,702z"/>
	<polygon fill="#E9DCCB" points="526.731,275.951 527.528,150.608 403.818,149.771 	"/>
	<path fill="#24B99D" d="M403.506,210.5H86.991c-8.812,0-15.956,6.113-15.956,17.977v495.388c0,3.222,7.143,9.335,15.956,9.335
		h437.048c8.812,0,15.956-6.113,15.956-9.335V331.636c0-6.497-1.015-8.587-2.804-10.127L410.29,212.899
		C408.49,211.369,406.046,210.5,403.506,210.5z"/>
	<path fill="#FFF3E0" d="M403.506,134.65H86.991c-8.812,0-15.956,5.833-15.956,17.152v472.686c0,3.074,7.143,8.907,15.956,9.861
		h437.048c8.812-0.954,15.956-6.787,15.956-9.861V250.235c0-6.2-1.015-8.194-2.804-9.663L410.29,136.94
		C408.49,135.479,406.046,134.65,403.506,134.65z"/>
	<path fill="#ADE0ED" d="M403.506,210.5H86.991c-8.812,0-15.956,4.957-15.956,14.577V626.78c0,2.611,7.143,7.569,15.956,7.569
		h437.048c8.812,0,15.956-4.958,15.956-7.569V308.727c0-5.268-1.015-6.963-2.804-8.212L410.29,212.445
		C408.49,211.205,406.046,210.5,403.506,210.5z"/>
</g>
</svg>
