<?xml version="1.0" encoding="utf-8"?>
<!-- Generator: Adobe Illustrator 15.0.0, SVG Export Plug-In . SVG Version: 6.00 Build 0)  -->
<!DOCTYPE svg PUBLIC "-//W3C//DTD SVG 1.1//EN" "http://www.w3.org/Graphics/SVG/1.1/DTD/svg11.dtd">
<svg version="1.1" id="Layer_1" xmlns="http://www.w3.org/2000/svg" xmlns:xlink="http://www.w3.org/1999/xlink" x="0px" y="0px"
	 width="612px" height="792px" viewBox="0 0 612 792" enable-background="new 0 0 612 792" xml:space="preserve">
<g>
	<path fill="#E9E9E0" d="M404.193,90H87.024c-8.831,0-15.989,7.158-15.989,21.048v580.023c0,3.771,7.158,10.929,15.989,10.929
		h437.951c8.83,0,15.989-7.158,15.989-10.929v-459.24c0-7.606-1.017-10.054-2.81-11.857L410.991,92.809
		C409.188,91.017,406.739,90,404.193,90z"/>
	<polygon fill="#D9D7CA" points="409.821,91.65 409.821,221.143 539.314,221.143 	"/>
	<path fill="#9777A8" d="M524.976,702H87.024c-8.831,0-15.989-7.158-15.989-15.988V516.214h469.928v169.798
		C540.964,694.842,533.806,702,524.976,702z"/>
</g>
<rect x="96.5" y="557.5" fill="none" width="495" height="148"/>
<text transform="matrix(1 0 0 1 96.5 642.6992)" fill="#FFFFFF" font-family="'MyriadPro-Regular'" font-size="120">SYMLNK</text>
<rect x="156.224" y="304.547" transform="matrix(0.1135 0.9935 -0.9935 0.1135 612.9678 73.9725)" fill="none" width="217.614" height="151.875"/>
<text transform="matrix(0.1135 0.9935 -0.9935 0.1135 224.5991 275.5889)" fill="#2D429B" font-family="'OratorStd-Slanted'" font-size="200">8</text>
</svg>
